<svg xmlns="http://www.w3.org/2000/svg" viewBox="0 0 24 24" fill="none" stroke="#c5c5c5" stroke-width="1.8" stroke-linecap="round" stroke-linejoin="round">
  <!-- Brain left half -->
  <path d="M12 3C9 3 6.5 5.5 6 8C4.5 8.5 3 10 3 12C3 14 4.5 15.5 6 15.5C6.5 18 8.5 21 12 21"/>
  <!-- Brain right half -->
  <path d="M12 3C15 3 17.5 5.5 18 8C19.5 8.5 21 10 21 12C21 14 19.5 15.5 18 15.5C17.5 18 15.5 21 12 21"/>
  <!-- Inner folds left -->
  <path d="M9 7C7.5 8.5 7.5 11 9 13"/>
  <!-- Inner folds right -->
  <path d="M15 7C16.5 8.5 16.5 11 15 13"/>
  <!-- Center line -->
  <line x1="12" y1="7" x2="12" y2="17"/>
</svg>
